<?xml version="1.0" encoding="UTF-8"?><svg id="Calque_1" xmlns="http://www.w3.org/2000/svg" viewBox="0 0 1000 1000"><defs><style>.cls-1{fill:#fff;}.cls-2{fill:#8bff97;}</style></defs><polygon class="cls-1" points="42.87 824.59 300.68 125.49 495.77 125.49 542.23 255.56 456.29 494.78 395.9 318.27 308.81 571.43 428.42 571.43 385.45 700.33 266.42 700.33 225.32 824.59 42.87 824.59"/><polygon class="cls-1" points="835.39 263.56 835.39 127.3 814.23 127.3 769.32 252.2 769.32 263.81 835.39 263.56"/><polygon class="cls-1" points="769.84 403.43 714.1 403.43 670.35 526.14 670.35 533.88 769.06 533.88 769.84 403.43"/><polygon class="cls-1" points="830.23 822.65 567 822.65 567 807.17 616.16 691.04 831.39 691.04 830.23 822.65"/><polygon class="cls-2" points="329.13 903.17 640.94 46.52 822.1 46.52 515.52 903.56 329.13 903.17"/></svg>